<?xml version='1.0' encoding='utf-8'?>
<svg xmlns="http://www.w3.org/2000/svg" width="64.803mm" height="63.477mm" clip-rule="evenodd" fill-rule="evenodd" image-rendering="optimizeQuality" shape-rendering="geometricPrecision" text-rendering="geometricPrecision" version="1.1" viewBox="0 0 2517 2466"> <defs> <style type="text/css">.fil0 {fill:#2B2A29}</style> </defs> <path class="fil0" d="m2242 707-485 404 178 190c35-22 101-6 155 41 62 53 87 125 56 161-4 4-8 7-13 10l332 355c99 105 38 333-25 454l-936-999-637 532c3 17 7 35 11 55 90 421-172 745-287 428-115-318-69-325-417-575s-134-577 297-320c19 11 36 21 53 30l629-526-831-888c126-55 357-101 455 4l259 277c36-22 101-6 155 41 62 53 87 125 56 161-4 4-8 8-12 10l171 184 490-410c109-90 488-273 570-158 103 145-112 444-224 539z"/> </svg>